<?xml version="1.0" encoding="utf-8"?>
<!-- Generator: Adobe Illustrator 26.0.2, SVG Export Plug-In . SVG Version: 6.00 Build 0)  -->
<svg version="1.1" id="Object" xmlns="http://www.w3.org/2000/svg" xmlns:xlink="http://www.w3.org/1999/xlink" x="0px" y="0px"
	 viewBox="0 0 816 663" style="enable-background:new 0 0 816 663;" xml:space="preserve">
<style type="text/css">
	.st0{fill:#F7F7F7;}
	.st1{fill:#A9A8A8;}
	.st2{fill:#AAA9A9;}
	.st3{fill:#ABAAAA;}
	.st4{fill:#ACABAB;}
	.st5{fill:#ADACAC;}
	.st6{fill:#AEADAD;}
	.st7{fill:#AFAEAE;}
	.st8{fill:#B0AFAF;}
	.st9{fill:#B1B0B0;}
	.st10{fill:#B2B1B1;}
	.st11{fill:#B3B2B2;}
	.st12{fill:#B4B3B3;}
	.st13{fill:#B5B4B4;}
	.st14{fill:#B6B5B5;}
	.st15{fill:#B7B6B6;}
	.st16{fill:#B8B7B7;}
	.st17{fill:#B9B8B8;}
	.st18{fill:#BAB9B9;}
	.st19{fill:#BBBABA;}
	.st20{fill:#BCBBBB;}
	.st21{fill:#BDBCBC;}
	.st22{fill:#BDBDBD;}
	.st23{fill:#BEBEBE;}
	.st24{fill:#BFBFBF;}
	.st25{fill:#C0C0C0;}
	.st26{fill:#C1C1C1;}
	.st27{fill:#C2C2C2;}
	.st28{fill:#C3C3C3;}
	.st29{fill:#C4C4C4;}
	.st30{fill:#C5C5C5;}
	.st31{fill:#C6C6C6;}
	.st32{fill:#C7C7C7;}
	.st33{fill:#C8C8C8;}
	.st34{fill:#C9C9C9;}
	.st35{fill:#CACACA;}
	.st36{fill:#CBCBCB;}
	.st37{fill:#CCCCCC;}
	.st38{fill:#CDCDCD;}
	.st39{fill:#CECECE;}
	.st40{fill:#CFCFCF;}
	.st41{fill:#D0CFCF;}
	.st42{fill:#D1D0D0;}
	.st43{fill:#D2D1D1;}
	.st44{fill:#D3D2D2;}
	.st45{fill:#D4D3D3;}
	.st46{fill:#D5D4D4;}
	.st47{fill:#D6D5D5;}
	.st48{fill:#D7D6D6;}
	.st49{fill:#D8D7D7;}
	.st50{fill:#D9D8D8;}
	.st51{fill:#DAD9D9;}
	.st52{fill:#DBDADA;}
	.st53{fill:#DCDBDB;}
	.st54{fill:#DDDCDC;}
	.st55{fill:#DEDDDD;}
	.st56{fill:#DFDEDE;}
	.st57{fill:#E0DFDF;}
	.st58{fill:#E1E0E0;}
	.st59{fill:#E2E1E1;}
	.st60{fill:#E3E2E2;}
	.st61{fill:#E3E3E3;}
	.st62{fill:#E4E4E4;}
	.st63{fill:#E5E5E5;}
	.st64{fill:#E6E6E6;}
	.st65{fill:#E7E7E7;}
	.st66{fill:#E8E8E8;}
	.st67{fill:#E9E9E9;}
	.st68{fill:#EAEAEA;}
	.st69{fill:#EBEBEB;}
	.st70{fill:#ECECEC;}
	.st71{fill:#EDEDED;}
	.st72{fill:#EEEEEE;}
	.st73{fill:#EFEFEF;}
	.st74{fill:#F0F0F0;}
	.st75{fill:#F1F1F1;}
	.st76{fill:#F2F2F2;}
	.st77{fill:#F3F3F3;}
	.st78{fill:#F4F4F4;}
	.st79{fill:#F5F5F5;}
	.st80{fill:#F6F6F6;}
	.st81{fill:#D0D0D0;}
	.st82{fill:#D1D1D1;}
	.st83{fill:#D2D2D2;}
	.st84{fill:#D3D3D3;}
	.st85{fill:#D4D4D4;}
	.st86{fill:#D5D5D5;}
	.st87{fill:#D6D6D6;}
	.st88{fill:#D7D7D7;}
	.st89{fill:#D8D8D8;}
	.st90{fill:#D9D9D9;}
	.st91{fill:#DADADA;}
	.st92{fill:#DBDBDB;}
	.st93{fill:#DCDCDC;}
	.st94{fill:#DDDDDD;}
	.st95{fill:#DEDEDE;}
	.st96{fill:#DFDFDF;}
	.st97{fill:#E0E0E0;}
	.st98{fill:#E1E1E1;}
	.st99{fill:#E2E2E2;}
	.st100{fill:#F6F4F4;}
	.st101{fill:#BEBDBD;}
	.st102{fill:#BFBEBE;}
	.st103{fill:#C0BFBF;}
	.st104{fill:#C1C0C0;}
	.st105{fill:#C2C1C1;}
	.st106{fill:#C3C2C2;}
	.st107{fill:#C4C3C3;}
	.st108{fill:#C5C4C4;}
	.st109{fill:#C6C5C5;}
	.st110{fill:#C7C6C6;}
	.st111{fill:#C8C7C7;}
	.st112{fill:#C9C8C8;}
	.st113{fill:#CAC9C9;}
	.st114{fill:#CBCACA;}
	.st115{fill:#CCCACA;}
	.st116{fill:#CDCBCB;}
	.st117{fill:#CECCCC;}
	.st118{fill:#CFCDCD;}
	.st119{fill:#D0CECE;}
	.st120{fill:#D1CFCF;}
	.st121{fill:#D2D0D0;}
	.st122{fill:#D3D1D1;}
	.st123{fill:#D4D2D2;}
	.st124{fill:#D5D3D3;}
	.st125{fill:#D6D4D4;}
	.st126{fill:#D7D5D5;}
	.st127{fill:#D8D6D6;}
	.st128{fill:#D9D7D7;}
	.st129{fill:#DAD8D8;}
	.st130{fill:#E4E3E3;}
	.st131{fill:#E5E4E4;}
	.st132{fill:#E6E5E5;}
	.st133{fill:#E7E6E6;}
	.st134{fill:#E8E6E6;}
	.st135{fill:#E9E7E7;}
	.st136{fill:#EAE8E8;}
	.st137{fill:#EBE9E9;}
	.st138{fill:#ECEAEA;}
	.st139{fill:#EDEBEB;}
	.st140{fill:#EEECEC;}
	.st141{fill:#EFEDED;}
	.st142{fill:#F0EEEE;}
	.st143{fill:#F1EFEF;}
	.st144{fill:#F2F0F0;}
	.st145{fill:#F3F1F1;}
	.st146{fill:#F4F2F2;}
	.st147{fill:#F5F3F3;}
	.st148{fill:url(#SVGID_1_);}
	.st149{fill:#0F0F0F;}
	.st150{fill:none;stroke:#262626;stroke-width:0.0745;stroke-miterlimit:10;}
</style>
<g id="XMLID_291_">
	<g id="XMLID_295_">
		<polygon id="XMLID_336_" class="st0" points="324.61,532.94 522.38,532.94 539.45,626.47 306.67,626.47 		"/>
		<g id="XMLID_326_">
			<polygon id="XMLID_333_" class="st1" points="525.79,551.65 522.38,532.94 324.61,532.94 320.99,551.82 			"/>
			<polygon class="st2" points="525.83,551.81 522.41,533.07 324.58,533.08 320.95,552.01 			"/>
			<polygon class="st3" points="525.86,551.98 522.43,533.21 324.55,533.22 320.92,552.19 			"/>
			<polygon class="st4" points="525.89,552.15 522.45,533.34 324.53,533.37 320.89,552.38 			"/>
			<polygon class="st5" points="525.92,552.31 522.48,533.48 324.5,533.51 320.85,552.56 			"/>
			<polygon class="st6" points="525.95,552.48 522.5,533.61 324.47,533.66 320.82,552.75 			"/>
			<polygon class="st7" points="525.98,552.64 522.53,533.75 324.44,533.8 320.79,552.93 			"/>
			<polygon class="st8" points="526.01,552.81 522.55,533.88 324.42,533.94 320.75,553.11 			"/>
			<polygon class="st9" points="526.04,552.98 522.58,534.02 324.39,534.09 320.72,553.3 			"/>
			<polygon class="st10" points="526.07,553.14 522.6,534.15 324.36,534.23 320.69,553.48 			"/>
			<polygon class="st11" points="526.1,553.31 522.63,534.29 324.33,534.38 320.65,553.67 			"/>
			<polygon class="st12" points="526.13,553.48 522.65,534.43 324.31,534.52 320.62,553.85 			"/>
			<polygon class="st13" points="526.16,553.64 522.68,534.56 324.28,534.66 320.58,554.04 			"/>
			<polygon class="st14" points="526.19,553.81 522.7,534.7 324.25,534.81 320.55,554.22 			"/>
			<polygon class="st15" points="526.22,553.98 522.73,534.83 324.22,534.95 320.52,554.41 			"/>
			<polygon class="st16" points="526.25,554.14 522.75,534.97 324.2,535.09 320.48,554.59 			"/>
			<polygon class="st17" points="526.28,554.31 522.78,535.1 324.17,535.24 320.45,554.78 			"/>
			<polygon class="st18" points="526.31,554.47 522.8,535.24 324.14,535.38 320.42,554.96 			"/>
			<polygon class="st19" points="526.34,554.64 522.82,535.37 324.11,535.53 320.38,555.14 			"/>
			<polygon class="st20" points="526.37,554.81 522.85,535.51 324.09,535.67 320.35,555.33 			"/>
			<polygon class="st21" points="526.4,554.97 522.87,535.64 324.06,535.81 320.31,555.51 			"/>
			<polygon class="st22" points="526.43,555.14 522.9,535.78 324.03,535.96 320.28,555.7 			"/>
			<polygon class="st23" points="526.46,555.31 522.92,535.91 324,536.1 320.25,555.88 			"/>
			<polygon class="st24" points="526.49,555.47 522.95,536.05 323.98,536.24 320.21,556.07 			"/>
			<polygon class="st25" points="526.52,555.64 522.97,536.18 323.95,536.39 320.18,556.25 			"/>
			<polygon class="st26" points="526.55,555.8 523,536.32 323.92,536.53 320.15,556.44 			"/>
			<polygon class="st27" points="526.58,555.97 523.02,536.45 323.89,536.68 320.11,556.62 			"/>
			<polygon class="st28" points="526.61,556.14 523.05,536.59 323.87,536.82 320.08,556.81 			"/>
			<polygon class="st29" points="526.64,556.3 523.07,536.73 323.84,536.96 320.05,556.99 			"/>
			<polygon class="st30" points="526.67,556.47 523.1,536.86 323.81,537.11 320.01,557.17 			"/>
			<polygon class="st31" points="526.71,556.64 523.12,537 323.78,537.25 319.98,557.36 			"/>
			<polygon class="st32" points="526.74,556.8 523.15,537.13 323.75,537.39 319.94,557.54 			"/>
			<polygon class="st33" points="526.77,556.97 523.17,537.27 323.73,537.54 319.91,557.73 			"/>
			<polygon class="st34" points="526.8,557.14 523.2,537.4 323.7,537.68 319.88,557.91 			"/>
			<polygon class="st35" points="526.83,557.3 523.22,537.54 323.67,537.83 319.84,558.1 			"/>
			<polygon class="st36" points="526.86,557.47 523.24,537.67 323.64,537.97 319.81,558.28 			"/>
			<polygon class="st37" points="526.89,557.63 523.27,537.81 323.62,538.11 319.78,558.47 			"/>
			<polygon class="st38" points="526.92,557.8 523.29,537.94 323.59,538.26 319.74,558.65 			"/>
			<polygon class="st39" points="526.95,557.97 523.32,538.08 323.56,538.4 319.71,558.84 			"/>
			<polygon class="st40" points="526.98,558.13 523.34,538.21 323.53,538.55 319.67,559.02 			"/>
			<polygon class="st41" points="527.01,558.3 523.37,538.35 323.51,538.69 319.64,559.2 			"/>
			<polygon class="st42" points="527.04,558.47 523.39,538.48 323.48,538.83 319.61,559.39 			"/>
			<polygon class="st43" points="527.07,558.63 523.42,538.62 323.45,538.98 319.57,559.57 			"/>
			<polygon class="st44" points="527.1,558.8 523.44,538.75 323.42,539.12 319.54,559.76 			"/>
			<polygon class="st45" points="527.13,558.97 523.47,538.89 323.4,539.26 319.51,559.94 			"/>
			<polygon class="st46" points="527.16,559.13 523.49,539.03 323.37,539.41 319.47,560.13 			"/>
			<polygon class="st47" points="527.19,559.3 523.52,539.16 323.34,539.55 319.44,560.31 			"/>
			<polygon class="st48" points="527.22,559.46 523.54,539.3 323.31,539.7 319.4,560.5 			"/>
			<polygon class="st49" points="527.25,559.63 523.57,539.43 323.29,539.84 319.37,560.68 			"/>
			<polygon class="st50" points="527.28,559.8 523.59,539.57 323.26,539.98 319.34,560.87 			"/>
			<polygon class="st51" points="527.31,559.96 523.61,539.7 323.23,540.13 319.3,561.05 			"/>
			<polygon class="st52" points="527.34,560.13 523.64,539.84 323.2,540.27 319.27,561.23 			"/>
			<polygon class="st53" points="527.37,560.3 523.66,539.97 323.18,540.41 319.24,561.42 			"/>
			<polygon class="st54" points="527.4,560.46 523.69,540.11 323.15,540.56 319.2,561.6 			"/>
			<polygon class="st55" points="527.43,560.63 523.71,540.24 323.12,540.7 319.17,561.79 			"/>
			<polygon class="st56" points="527.46,560.79 523.74,540.38 323.09,540.85 319.14,561.97 			"/>
			<polygon class="st57" points="527.49,560.96 523.76,540.51 323.07,540.99 319.1,562.16 			"/>
			<polygon class="st58" points="527.52,561.13 523.79,540.65 323.04,541.13 319.07,562.34 			"/>
			<polygon class="st59" points="527.56,561.29 523.81,540.78 323.01,541.28 319.03,562.53 			"/>
			<polygon class="st60" points="527.59,561.46 523.84,540.92 322.98,541.42 319,562.71 			"/>
			<polygon class="st61" points="527.62,561.63 523.86,541.05 322.96,541.56 318.97,562.9 			"/>
			<polygon class="st62" points="527.65,561.79 523.89,541.19 322.93,541.71 318.93,563.08 			"/>
			<polygon class="st63" points="527.68,561.96 523.91,541.32 322.9,541.85 318.9,563.26 			"/>
			<polygon class="st64" points="527.71,562.13 523.94,541.46 322.87,542 318.87,563.45 			"/>
			<polygon class="st65" points="527.74,562.29 523.96,541.6 322.85,542.14 318.83,563.63 			"/>
			<polygon class="st66" points="527.77,562.46 523.98,541.73 322.82,542.28 318.8,563.82 			"/>
			<polygon class="st67" points="527.8,562.62 524.01,541.87 322.79,542.43 318.76,564 			"/>
			<polygon class="st68" points="527.83,562.79 524.03,542 322.76,542.57 318.73,564.19 			"/>
			<polygon class="st69" points="527.86,562.96 524.06,542.14 322.73,542.71 318.7,564.37 			"/>
			<polygon class="st70" points="527.89,563.12 524.08,542.27 322.71,542.86 318.66,564.56 			"/>
			<polygon class="st71" points="527.92,563.29 524.11,542.41 322.68,543 318.63,564.74 			"/>
			<polygon class="st72" points="527.95,563.46 524.13,542.54 322.65,543.15 318.6,564.93 			"/>
			<polygon class="st73" points="527.98,563.62 524.16,542.68 322.62,543.29 318.56,565.11 			"/>
			<polygon class="st74" points="528.01,563.79 524.18,542.81 322.6,543.43 318.53,565.29 			"/>
			<polygon class="st75" points="528.04,563.96 524.21,542.95 322.57,543.58 318.5,565.48 			"/>
			<polygon class="st76" points="528.07,564.12 524.23,543.08 322.54,543.72 318.46,565.66 			"/>
			<polygon class="st77" points="528.1,564.29 524.26,543.22 322.51,543.87 318.43,565.85 			"/>
			<polygon class="st78" points="528.13,564.45 524.28,543.35 322.49,544.01 318.39,566.03 			"/>
			<polygon class="st79" points="528.16,564.62 524.31,543.49 322.46,544.15 318.36,566.22 			"/>
			<polygon class="st80" points="528.19,564.79 524.33,543.62 322.43,544.3 318.33,566.4 			"/>
			<polygon id="XMLID_332_" class="st0" points="528.22,564.95 524.36,543.76 322.4,544.44 318.29,566.59 			"/>
		</g>
		<g id="XMLID_318_">
			<polygon id="XMLID_325_" class="st29" points="309.27,612.94 306.67,626.47 539.45,626.47 535.07,612.09 			"/>
			<polygon class="st30" points="309.3,612.77 306.69,626.38 539.43,626.36 535.08,611.95 			"/>
			<polygon class="st31" points="309.33,612.61 306.71,626.28 539.41,626.25 535.09,611.81 			"/>
			<polygon class="st32" points="309.37,612.44 306.73,626.19 539.39,626.14 535.1,611.67 			"/>
			<polygon class="st33" points="309.4,612.27 306.75,626.09 539.37,626.03 535.1,611.54 			"/>
			<polygon class="st34" points="309.43,612.11 306.77,626 539.35,625.92 535.11,611.4 			"/>
			<polygon class="st35" points="309.46,611.94 306.78,625.9 539.33,625.8 535.12,611.26 			"/>
			<polygon class="st36" points="309.49,611.78 306.8,625.81 539.31,625.69 535.13,611.13 			"/>
			<polygon class="st37" points="309.52,611.61 306.82,625.71 539.29,625.58 535.14,610.99 			"/>
			<polygon class="st38" points="309.56,611.39 306.84,625.56 539.27,625.42 535.15,610.8 			"/>
			<polygon class="st39" points="309.59,611.22 306.86,625.46 539.25,625.3 535.16,610.66 			"/>
			<polygon class="st40" points="309.62,611.05 306.87,625.36 539.23,625.18 535.17,610.51 			"/>
			<polygon class="st81" points="309.65,610.88 306.89,625.26 539.21,625.06 535.18,610.37 			"/>
			<polygon class="st82" points="309.68,610.71 306.91,625.16 539.19,624.95 535.18,610.23 			"/>
			<polygon class="st83" points="309.71,610.54 306.93,625.06 539.17,624.83 535.19,610.09 			"/>
			<polygon class="st84" points="309.75,610.36 306.95,624.96 539.15,624.71 535.2,609.94 			"/>
			<polygon class="st85" points="309.78,610.19 306.97,624.85 539.13,624.6 535.21,609.8 			"/>
			<polygon class="st86" points="309.81,610.02 306.98,624.75 539.1,624.48 535.22,609.66 			"/>
			<polygon class="st87" points="309.84,609.85 307,624.65 539.08,624.36 535.23,609.51 			"/>
			<polygon class="st88" points="309.87,609.68 307.02,624.55 539.06,624.24 535.24,609.37 			"/>
			<polygon class="st89" points="309.9,609.51 307.04,624.45 539.04,624.13 535.25,609.23 			"/>
			<polygon class="st90" points="309.94,609.34 307.06,624.35 539.02,624.01 535.25,609.09 			"/>
			<polygon class="st91" points="309.97,609.16 307.08,624.25 539,623.89 535.26,608.94 			"/>
			<polygon class="st92" points="310,608.99 307.09,624.15 538.98,623.78 535.27,608.8 			"/>
			<polygon class="st93" points="310.03,608.82 307.11,624.05 538.96,623.66 535.28,608.66 			"/>
			<polygon class="st94" points="310.06,608.65 307.13,623.94 538.94,623.54 535.29,608.51 			"/>
			<polygon class="st94" points="310.09,608.48 307.15,623.84 538.92,623.42 535.3,608.37 			"/>
			<polygon class="st95" points="310.13,608.31 307.17,623.74 538.9,623.31 535.31,608.23 			"/>
			<polygon class="st96" points="310.16,608.14 307.18,623.64 538.88,623.19 535.32,608.09 			"/>
			<polygon class="st97" points="310.19,607.96 307.2,623.54 538.86,623.07 535.32,607.94 			"/>
			<polygon class="st98" points="310.22,607.8 307.22,623.44 538.84,622.96 535.33,607.8 			"/>
			<polygon class="st99" points="310.25,607.64 307.24,623.36 538.82,622.86 535.34,607.67 			"/>
			<polygon class="st61" points="310.28,607.48 307.26,623.27 538.8,622.75 535.35,607.55 			"/>
			<polygon class="st62" points="310.32,607.32 307.28,623.18 538.78,622.65 535.36,607.42 			"/>
			<polygon class="st63" points="310.35,607.17 307.29,623.1 538.76,622.55 535.37,607.29 			"/>
			<polygon class="st64" points="310.38,607.01 307.31,623.01 538.74,622.44 535.38,607.16 			"/>
			<polygon class="st65" points="310.41,606.85 307.33,622.92 538.72,622.34 535.39,607.03 			"/>
			<polygon class="st66" points="310.44,606.7 307.35,622.83 538.7,622.24 535.39,606.9 			"/>
			<polygon class="st67" points="310.47,606.54 307.37,622.75 538.68,622.14 535.4,606.78 			"/>
			<polygon class="st68" points="310.51,606.38 307.38,622.66 538.66,622.03 535.41,606.65 			"/>
			<polygon class="st69" points="310.54,606.22 307.4,622.57 538.64,621.93 535.42,606.52 			"/>
			<polygon class="st70" points="310.57,606.07 307.42,622.49 538.62,621.83 535.43,606.39 			"/>
			<polygon class="st71" points="310.6,605.91 307.44,622.4 538.6,621.72 535.44,606.26 			"/>
			<polygon class="st72" points="310.63,605.75 307.46,622.31 538.58,621.62 535.45,606.13 			"/>
			<polygon class="st73" points="310.66,605.6 307.48,622.23 538.56,621.52 535.46,606 			"/>
			<polygon class="st74" points="310.7,605.44 307.49,622.14 538.54,621.42 535.47,605.88 			"/>
			<polygon class="st75" points="310.73,605.33 307.51,622.1 538.52,621.36 535.47,605.8 			"/>
			<polygon class="st76" points="310.76,605.17 307.53,622.01 538.5,621.25 535.48,605.66 			"/>
			<polygon class="st77" points="310.79,605 307.55,621.91 538.48,621.14 535.49,605.52 			"/>
			<polygon class="st78" points="310.82,604.84 307.57,621.82 538.46,621.03 535.5,605.39 			"/>
			<polygon class="st79" points="310.86,604.67 307.59,621.72 538.44,620.92 535.51,605.25 			"/>
			<polygon class="st80" points="310.89,604.5 307.6,621.63 538.42,620.81 535.52,605.11 			"/>
			<polygon id="XMLID_324_" class="st0" points="310.92,604.34 307.62,621.53 538.4,620.7 535.53,604.98 			"/>
		</g>
		<path id="XMLID_317_" class="st100" d="M567.71,631.52l-28.26-5.05H306.67l-28.26,5.05c-0.87,0.16-1.5,0.91-1.5,1.8v5.64
			c0,0.74,0.6,1.33,1.33,1.33h289.63c0.74,0,1.33-0.6,1.33-1.33v-5.64C569.21,632.43,568.58,631.67,567.71,631.52z"/>
		<g id="XMLID_309_">
			<polygon id="XMLID_316_" class="st21" points="560.48,630.23 539.45,626.47 306.67,626.47 285.65,630.23 			"/>
			<path class="st101" d="M306.19,626.56c-0.02,0-6.43,1.16-6.43,1.17l-14.26,2.64c0,0.01,1.9,0.02,1.91,0.02
				c0,0,273.2,0,273.22-0.02l-14.26-2.64c0-0.02-6.42-1.17-6.43-1.17l-2.09-0.01C537.85,626.55,306.23,626.55,306.19,626.56z"/>
			<path class="st102" d="M305.7,626.65c-0.03,0.01-6.35,1.16-6.35,1.19l-14.01,2.7c0,0.03,1.87,0.05,1.9,0.05
				c0,0,273.49,0,273.53-0.05l-14.01-2.7c0-0.03-6.32-1.18-6.35-1.19l-2.09-0.02C538.33,626.63,305.79,626.63,305.7,626.65z"/>
			<path class="st103" d="M305.21,626.73c-0.05,0.01-6.26,1.15-6.26,1.2l-13.76,2.75c0,0.04,1.85,0.07,1.89,0.07
				c0,0,273.78,0,273.85-0.07l-13.76-2.75c0-0.05-6.21-1.19-6.26-1.2l-2.1-0.02C538.81,626.71,305.35,626.71,305.21,626.73z"/>
			<path class="st104" d="M304.73,626.82c-0.06,0.01-6.17,1.15-6.17,1.21l-13.51,2.8c0,0.05,1.83,0.09,1.88,0.09
				c0,0,274.07,0,274.16-0.09l-13.51-2.8c0-0.06-6.11-1.2-6.17-1.21l-2.11-0.03C539.29,626.79,304.9,626.79,304.73,626.82z"/>
			<path class="st105" d="M304.24,626.91c-0.08,0.01-6.09,1.14-6.09,1.22l-13.26,2.85c0,0.06,1.8,0.11,1.87,0.11
				c0,0,274.35,0,274.47-0.11l-13.26-2.85c0-0.08-6.01-1.21-6.09-1.22l-2.12-0.04C539.76,626.87,304.46,626.87,304.24,626.91z"/>
			<path class="st106" d="M303.75,626.99c-0.09,0.02-6,1.14-6,1.23l-13.01,2.91c0,0.08,1.78,0.14,1.86,0.14
				c0,0,274.64,0,274.78-0.14l-13.01-2.91c0-0.09-5.91-1.21-6-1.23l-2.13-0.05C540.24,626.95,304.02,626.95,303.75,626.99z"/>
			<path class="st107" d="M303.26,627.08c-0.11,0.02-5.91,1.13-5.91,1.24l-12.76,2.96c0,0.09,1.76,0.16,1.85,0.16
				c0,0,274.93,0,275.09-0.16l-12.76-2.96c0-0.11-5.81-1.22-5.91-1.24l-2.14-0.06C540.72,627.02,303.58,627.02,303.26,627.08z"/>
			<path class="st108" d="M302.78,627.17c-0.12,0.02-5.83,1.13-5.83,1.25l-12.51,3.01c0,0.1,1.74,0.18,1.84,0.18
				c0,0,275.22,0,275.4-0.18l-12.51-3.01c0-0.12-5.71-1.23-5.83-1.25l-2.15-0.06C541.2,627.1,303.13,627.1,302.78,627.17z"/>
			<path class="st109" d="M302.29,627.25c-0.13,0.02-5.74,1.12-5.74,1.26l-12.26,3.06c0,0.11,1.71,0.21,1.83,0.21
				c0,0,275.51,0,275.71-0.21l-12.26-3.06c0-0.14-5.61-1.24-5.74-1.26l-2.16-0.07C541.68,627.18,302.69,627.18,302.29,627.25z"/>
			<path class="st110" d="M301.8,627.34c-0.15,0.03-5.65,1.12-5.65,1.27l-12.01,3.12c0,0.13,1.69,0.23,1.82,0.23
				c0,0,275.79,0,276.02-0.23l-12.01-3.12c0-0.15-5.5-1.25-5.65-1.27l-2.17-0.08C542.16,627.26,302.25,627.26,301.8,627.34z"/>
			<path class="st111" d="M301.32,627.43c-0.16,0.03-5.57,1.12-5.57,1.28l-11.76,3.17c0,0.14,1.67,0.25,1.81,0.25
				c0,0,276.08,0,276.34-0.25l-11.76-3.17c0-0.17-5.4-1.25-5.57-1.28l-2.17-0.09C542.63,627.34,301.81,627.34,301.32,627.43z"/>
			<path class="st112" d="M300.83,627.52c-0.18,0.03-5.48,1.11-5.48,1.29l-11.51,3.22c0,0.15,1.64,0.28,1.8,0.28
				c0,0,276.37,0,276.65-0.28l-11.51-3.22c0-0.18-5.3-1.26-5.48-1.29l-2.18-0.1C543.11,627.42,301.36,627.42,300.83,627.52z"/>
			<path class="st113" d="M300.34,627.6c-0.2,0.03-5.39,1.11-5.39,1.31l-11.26,3.28c0,0.16,1.62,0.3,1.79,0.3
				c0,0,276.66,0,276.96-0.3l-11.26-3.28c0-0.2-5.2-1.27-5.39-1.31l-2.19-0.1C543.59,627.5,300.92,627.5,300.34,627.6z"/>
			<path class="st114" d="M299.85,627.69c-0.21,0.04-5.31,1.1-5.31,1.32l-11.01,3.33c0,0.18,1.6,0.32,1.78,0.32
				c0,0,276.95,0,277.27-0.32l-11.01-3.33c0-0.21-5.1-1.28-5.31-1.32l-2.2-0.11C544.07,627.58,300.48,627.58,299.85,627.69z"/>
			<path class="st115" d="M299.37,627.78c-0.23,0.04-5.22,1.1-5.22,1.33l-10.76,3.38c0,0.19,1.58,0.34,1.77,0.34
				c0,0,277.24,0,277.58-0.34l-10.76-3.38c0-0.23-5-1.29-5.22-1.33l-2.21-0.12C544.55,627.66,300.04,627.66,299.37,627.78z"/>
			<path class="st116" d="M298.88,627.86c-0.24,0.04-5.13,1.09-5.13,1.34l-10.51,3.43c0,0.2,1.55,0.37,1.76,0.37
				c0,0,277.52,0,277.89-0.37l-10.51-3.43c0-0.24-4.89-1.3-5.13-1.34l-2.22-0.13C545.03,627.74,299.6,627.74,298.88,627.86z"/>
			<path class="st117" d="M298.39,627.95c-0.26,0.05-5.05,1.09-5.05,1.35l-10.26,3.49c0,0.22,1.53,0.39,1.75,0.39
				c0,0,277.81,0,278.2-0.39l-10.26-3.49c0-0.26-4.79-1.3-5.05-1.35l-2.23-0.14C545.5,627.81,299.15,627.81,298.39,627.95z"/>
			<path class="st118" d="M297.91,628.04c-0.27,0.05-4.96,1.09-4.96,1.36l-10.01,3.54c0,0.23,1.51,0.41,1.74,0.41
				c0,0,278.1,0,278.51-0.41l-10.01-3.54c0-0.27-4.69-1.31-4.96-1.36l-2.24-0.14C545.98,627.89,298.71,627.89,297.91,628.04z"/>
			<path class="st119" d="M297.42,628.12c-0.29,0.05-4.88,1.08-4.88,1.37l-9.76,3.59c0,0.24,1.49,0.44,1.73,0.44
				c0,0,278.39,0,278.83-0.44l-9.76-3.59c0-0.29-4.59-1.32-4.88-1.37l-2.25-0.15C546.46,627.97,298.27,627.97,297.42,628.12z"/>
			<path class="st120" d="M296.93,628.21c-0.3,0.05-4.79,1.08-4.79,1.38l-9.51,3.64c0,0.25,1.46,0.46,1.72,0.46
				c0,0,278.68,0,279.14-0.46l-9.51-3.64c0-0.3-4.49-1.33-4.79-1.38l-2.25-0.16C546.94,628.05,297.83,628.05,296.93,628.21z"/>
			<path class="st121" d="M296.44,628.3c-0.32,0.06-4.7,1.07-4.7,1.39l-9.26,3.7c0,0.27,1.44,0.48,1.71,0.48
				c0,0,278.97,0,279.45-0.48l-9.26-3.7c0-0.32-4.39-1.34-4.7-1.39l-2.26-0.17C547.42,628.13,297.38,628.13,296.44,628.3z"/>
			<path class="st122" d="M295.96,628.39c-0.33,0.06-4.62,1.07-4.62,1.4l-9.01,3.75c0,0.28,1.42,0.51,1.7,0.51
				c0,0,279.25,0,279.76-0.51l-9.01-3.75c0-0.34-4.29-1.34-4.62-1.4l-2.27-0.18C547.9,628.21,296.94,628.21,295.96,628.39z"/>
			<path class="st123" d="M295.47,628.47c-0.34,0.06-4.53,1.06-4.53,1.41l-8.76,3.8c0,0.29,1.39,0.53,1.69,0.53
				c0,0,279.54,0,280.07-0.53l-8.76-3.8c0-0.35-4.18-1.35-4.53-1.41l-2.28-0.18C548.37,628.29,296.5,628.29,295.47,628.47z"/>
			<path class="st124" d="M294.98,628.56c-0.36,0.06-4.44,1.06-4.44,1.43l-8.51,3.85c0,0.3,1.37,0.55,1.68,0.55
				c0,0,279.83,0,280.38-0.55l-8.51-3.85c0-0.37-4.08-1.36-4.44-1.43l-2.29-0.19C548.85,628.37,296.06,628.37,294.98,628.56z"/>
			<path class="st125" d="M294.49,628.65c-0.37,0.07-4.36,1.06-4.36,1.44l-8.26,3.91c0,0.32,1.35,0.57,1.67,0.57
				c0,0,280.12,0,280.69-0.57l-8.26-3.91c0-0.38-3.98-1.37-4.36-1.44l-2.3-0.2C549.33,628.45,295.61,628.45,294.49,628.65z"/>
			<path class="st126" d="M294.01,628.73c-0.39,0.07-4.27,1.05-4.27,1.45l-8.01,3.96c0,0.33,1.33,0.6,1.66,0.6c0,0,280.41,0,281-0.6
				l-8.01-3.96c0-0.4-3.88-1.38-4.27-1.45l-2.31-0.21C549.81,628.53,295.17,628.53,294.01,628.73z"/>
			<path class="st127" d="M293.52,628.82c-0.4,0.07-4.18,1.05-4.18,1.46l-7.76,4.01c0,0.34,1.3,0.62,1.65,0.62
				c0,0,280.7,0,281.32-0.62l-7.76-4.01c0-0.41-3.78-1.39-4.18-1.46l-2.32-0.22C550.29,628.6,294.73,628.6,293.52,628.82z"/>
			<path class="st128" d="M293.03,628.91c-0.42,0.07-4.1,1.04-4.1,1.47l-7.5,4.06c0,0.36,1.28,0.64,1.64,0.64
				c0,0,280.98,0,281.63-0.64l-7.5-4.06c0-0.43-3.68-1.39-4.1-1.47l-2.33-0.22C550.77,628.68,294.29,628.68,293.03,628.91z"/>
			<path class="st129" d="M292.55,628.99c-0.43,0.08-4.01,1.04-4.01,1.48l-7.25,4.12c0,0.37,1.26,0.67,1.63,0.67
				c0,0,281.27,0,281.94-0.67l-7.25-4.12c0-0.44-3.58-1.4-4.01-1.48l-2.34-0.23C551.24,628.76,293.84,628.76,292.55,628.99z"/>
			<path class="st51" d="M292.06,629.08c-0.45,0.08-3.92,1.03-3.92,1.49l-7,4.17c0,0.38,1.23,0.69,1.62,0.69
				c0,0,281.56,0,282.25-0.69l-7-4.17c0-0.46-3.47-1.41-3.92-1.49l-2.34-0.24C551.72,628.84,293.4,628.84,292.06,629.08z"/>
			<path class="st52" d="M291.57,629.17c-0.46,0.08-3.84,1.03-3.84,1.5l-6.75,4.22c0,0.39,1.21,0.71,1.61,0.71
				c0,0,281.85,0,282.56-0.71l-6.75-4.22c0-0.47-3.37-1.42-3.84-1.5l-2.35-0.25C552.2,628.92,292.96,628.92,291.57,629.17z"/>
			<path class="st53" d="M291.08,629.26c-0.48,0.09-3.75,1.02-3.75,1.51l-6.5,4.27c0,0.41,1.19,0.74,1.6,0.74
				c0,0,282.14,0,282.87-0.74l-6.5-4.27c0-0.49-3.27-1.43-3.75-1.51l-2.36-0.26C552.68,629,292.52,629,291.08,629.26z"/>
			<path class="st54" d="M290.6,629.34c-0.49,0.09-3.66,1.02-3.66,1.52l-6.25,4.33c0,0.42,1.17,0.76,1.59,0.76
				c0,0,282.42,0,283.18-0.76l-6.25-4.33c0-0.5-3.17-1.43-3.66-1.52l-2.37-0.26C553.16,629.08,292.07,629.08,290.6,629.34z"/>
			<path class="st55" d="M290.11,629.43c-0.51,0.09-3.58,1.02-3.58,1.53l-6,4.38c0,0.43,1.14,0.78,1.57,0.78
				c0,0,282.71,0,283.49-0.78l-6-4.38c0-0.52-3.07-1.44-3.58-1.53l-2.38-0.27C553.63,629.16,291.63,629.16,290.11,629.43z"/>
			<path class="st56" d="M289.62,629.52c-0.52,0.09-3.49,1.01-3.49,1.55l-5.75,4.43c0,0.44,1.12,0.8,1.56,0.8c0,0,283,0,283.81-0.8
				l-5.75-4.43c0-0.53-2.97-1.45-3.49-1.55l-2.39-0.28C554.11,629.24,291.19,629.24,289.62,629.52z"/>
			<path class="st57" d="M289.14,629.6c-0.54,0.1-3.41,1.01-3.41,1.56l-5.5,4.49c0,0.46,1.1,0.83,1.55,0.83
				c0,0,283.29,0,284.12-0.83l-5.5-4.49c0-0.55-2.87-1.46-3.41-1.56l-2.4-0.29C554.59,629.32,290.75,629.32,289.14,629.6z"/>
			<path class="st58" d="M288.65,629.69c-0.55,0.1-3.32,1-3.32,1.57l-5.25,4.54c0,0.47,1.08,0.85,1.54,0.85
				c0,0,283.58,0,284.43-0.85l-5.25-4.54c0-0.56-2.76-1.47-3.32-1.57l-2.41-0.3C555.07,629.39,290.3,629.39,288.65,629.69z"/>
			<path class="st59" d="M288.16,629.78c-0.57,0.1-3.23,1-3.23,1.58l-5,4.59c0,0.48,1.05,0.87,1.53,0.87c0,0,283.87,0,284.74-0.87
				l-5-4.59c0-0.58-2.66-1.48-3.23-1.58l-2.42-0.3C555.55,629.47,289.86,629.47,288.16,629.78z"/>
			<path class="st60" d="M287.67,629.86c-0.58,0.1-3.15,0.99-3.15,1.59l-4.75,4.64c0,0.49,1.03,0.9,1.52,0.9
				c0,0,284.15,0,285.05-0.9l-4.75-4.64c0-0.59-2.56-1.48-3.15-1.59l-2.42-0.31C556.03,629.55,289.42,629.55,287.67,629.86z"/>
			<path class="st130" d="M287.19,629.95c-0.6,0.11-3.06,0.99-3.06,1.6l-4.5,4.7c0,0.51,1.01,0.92,1.51,0.92
				c0,0,284.44,0,285.36-0.92l-4.5-4.7c0-0.61-2.46-1.49-3.06-1.6l-2.43-0.32C556.5,629.63,288.98,629.63,287.19,629.95z"/>
			<path class="st131" d="M286.7,630.04c-0.61,0.11-2.97,0.99-2.97,1.61l-4.25,4.75c0,0.52,0.98,0.94,1.5,0.94
				c0,0,284.73,0,285.67-0.94l-4.25-4.75c0-0.62-2.36-1.5-2.97-1.61l-2.44-0.33C556.98,629.71,288.53,629.71,286.7,630.04z"/>
			<path class="st132" d="M286.21,630.13c-0.63,0.11-2.89,0.98-2.89,1.62l-4,4.8c0,0.53,0.96,0.97,1.49,0.97
				c0,0,285.02,0,285.98-0.97l-4-4.8c0-0.64-2.26-1.51-2.89-1.62l-2.45-0.34C557.46,629.79,288.09,629.79,286.21,630.13z"/>
			<path class="st133" d="M285.73,630.21c-0.64,0.12-2.8,0.98-2.8,1.63l-3.75,4.85c0,0.55,0.94,0.99,1.48,0.99
				c0,0,285.31,0,286.3-0.99l-3.75-4.85c0-0.66-2.16-1.52-2.8-1.63l-2.46-0.34C557.94,629.87,287.65,629.87,285.73,630.21z"/>
			<path class="st134" d="M285.24,630.3c-0.66,0.12-2.71,0.97-2.71,1.64l-3.5,4.91c0,0.56,0.92,1.01,1.47,1.01
				c0,0,285.6,0,286.61-1.01l-3.5-4.91c0-0.67-2.05-1.53-2.71-1.64l-2.47-0.35C558.42,629.95,287.21,629.95,285.24,630.3z"/>
			<path class="st135" d="M284.75,630.39c-0.67,0.12-2.63,0.97-2.63,1.65l-3.25,4.96c0,0.57,0.89,1.03,1.46,1.03
				c0,0,285.88,0,286.92-1.03l-3.25-4.96c0-0.69-1.95-1.53-2.63-1.65l-2.48-0.36C558.9,630.03,286.76,630.03,284.75,630.39z"/>
			<path class="st136" d="M284.26,630.47c-0.69,0.12-2.54,0.96-2.54,1.67l-3,5.01c0,0.58,0.87,1.06,1.45,1.06
				c0,0,286.17,0,287.23-1.06l-3-5.01c0-0.7-1.85-1.54-2.54-1.67l-2.49-0.37C559.37,630.11,286.32,630.11,284.26,630.47z"/>
			<path class="st137" d="M283.78,630.56c-0.7,0.13-2.45,0.96-2.45,1.68l-2.75,5.06c0,0.6,0.85,1.08,1.44,1.08
				c0,0,286.46,0,287.54-1.08l-2.75-5.06c0-0.72-1.75-1.55-2.45-1.68l-2.5-0.38C559.85,630.18,285.88,630.18,283.78,630.56z"/>
			<path class="st138" d="M283.29,630.65c-0.72,0.13-2.37,0.96-2.37,1.69l-2.5,5.12c0,0.61,0.82,1.1,1.43,1.1
				c0,0,286.75,0,287.85-1.1l-2.5-5.12c0-0.73-1.65-1.56-2.37-1.69l-2.5-0.38C560.33,630.26,285.44,630.26,283.29,630.65z"/>
			<path class="st139" d="M282.8,630.73c-0.73,0.13-2.28,0.95-2.28,1.7l-2.25,5.17c0,0.62,0.8,1.13,1.42,1.13
				c0,0,287.04,0,288.16-1.13l-2.25-5.17c0-0.75-1.55-1.57-2.28-1.7l-2.51-0.39C560.81,630.34,284.99,630.34,282.8,630.73z"/>
			<path class="st140" d="M282.31,630.82c-0.75,0.13-2.19,0.95-2.19,1.71l-2,5.22c0,0.63,0.78,1.15,1.41,1.15
				c0,0,287.32,0,288.47-1.15l-2-5.22c0-0.76-1.45-1.57-2.2-1.71l-2.52-0.4C561.29,630.42,284.55,630.42,282.31,630.82z"/>
			<path class="st141" d="M281.83,630.91c-0.76,0.14-2.11,0.94-2.11,1.72l-1.75,5.27c0,0.65,0.76,1.17,1.4,1.17
				c0,0,287.61,0,288.79-1.17l-1.75-5.27c0-0.78-1.34-1.58-2.11-1.72l-2.53-0.41C561.77,630.5,284.11,630.5,281.83,630.91z"/>
			<path class="st142" d="M281.34,630.99c-0.78,0.14-2.02,0.94-2.02,1.73l-1.5,5.33c0,0.66,0.73,1.19,1.39,1.19
				c0,0,287.9,0,289.1-1.19l-1.5-5.33c0-0.79-1.24-1.59-2.02-1.73l-2.54-0.42C562.24,630.58,283.67,630.58,281.34,630.99z"/>
			<path class="st143" d="M280.85,631.08c-0.79,0.14-1.94,0.93-1.94,1.74l-1.25,5.38c0,0.67,0.71,1.22,1.38,1.22
				c0,0,288.19,0,289.41-1.22l-1.25-5.38c0-0.81-1.14-1.6-1.94-1.74l-2.55-0.42C562.72,630.66,283.22,630.66,280.85,631.08z"/>
			<path class="st144" d="M280.37,631.17c-0.81,0.14-1.85,0.93-1.85,1.75l-1,5.43c0,0.69,0.69,1.24,1.37,1.24
				c0,0,288.48,0,289.72-1.24l-1-5.43c0-0.82-1.04-1.61-1.85-1.75l-2.56-0.43C563.2,630.74,282.78,630.74,280.37,631.17z"/>
			<path class="st145" d="M279.88,631.26c-0.82,0.15-1.76,0.93-1.76,1.76l-0.75,5.49c0,0.7,0.67,1.26,1.36,1.26
				c0,0,288.77,0,290.03-1.26l-0.75-5.49c0-0.84-0.94-1.62-1.76-1.76l-2.57-0.44C563.68,630.82,282.34,630.82,279.88,631.26z"/>
			<path class="st146" d="M279.39,631.34c-0.84,0.15-1.68,0.92-1.68,1.77l-0.5,5.54c0,0.71,0.64,1.29,1.35,1.29
				c0,0,289.05,0,290.34-1.29l-0.5-5.54c0-0.85-0.84-1.62-1.68-1.77l-2.58-0.45C564.16,630.9,281.9,630.9,279.39,631.34z"/>
			<path class="st147" d="M278.9,631.43c-0.85,0.15-1.59,0.92-1.59,1.78l-0.25,5.59c0,0.72,0.62,1.31,1.34,1.31
				c0,0,289.34,0,290.65-1.31l-0.25-5.59c0-0.87-0.73-1.63-1.59-1.78l-2.58-0.46C564.64,630.97,281.45,630.97,278.9,631.43z"/>
			<path id="XMLID_315_" class="st100" d="M567.71,631.52l-2.59-0.46h-284.1l-2.59,0.46c-0.87,0.16-1.5,0.91-1.5,1.8v5.64
				c0,0.74,0.6,1.33,1.33,1.33h289.63c0.74,0,1.33-0.6,1.33-1.33v-5.64C569.21,632.43,568.58,631.67,567.71,631.52z"/>
		</g>
		<g id="XMLID_296_">
			<linearGradient id="SVGID_1_" gradientUnits="userSpaceOnUse" x1="408.0001" y1="533.2131" x2="408.0001" y2="10.8836">
				<stop  offset="0" style="stop-color:#EAEAEB"/>
				<stop  offset="0.5064" style="stop-color:#AAAAAE"/>
				<stop  offset="0.663" style="stop-color:#C6C6C9"/>
				<stop  offset="1" style="stop-color:#FFFFFF"/>
			</linearGradient>
			<path class="st148" d="M783.33,10.88H32.67c-12.36,0-22.39,10.86-22.39,24.27v425.57v37.33v10.89c0,13.4,10.02,24.27,22.39,24.27
				h750.66c12.36,0,22.39-10.86,22.39-24.27v-10.89v-37.33V35.15C805.72,21.75,795.69,10.88,783.33,10.88z"/>
			<path class="st149" d="M779.89,15.07H35.54c-12.25,0-22.19,10.69-22.19,23.88V457.7v36.73v10.72c0,13.19,9.94,23.88,22.19,23.88
				h744.35c12.26,0,22.19-10.69,22.19-23.88v-10.72V457.7V38.95C802.08,25.76,792.15,15.07,779.89,15.07z"/>
			<g id="XMLID_306_">
				<g id="XMLID_307_">
					<circle id="XMLID_308_" class="st150" cx="416.4" cy="27.1" r="7.21"/>
				</g>
			</g>
		</g>
	</g>
</g>
</svg>
